<?xml version="1.0" encoding="utf-8"?>
<!-- Generator: Adobe Illustrator 13.0.0, SVG Export Plug-In  -->
<!DOCTYPE svg PUBLIC "-//W3C//DTD SVG 1.1//EN" "http://www.w3.org/Graphics/SVG/1.1/DTD/svg11.dtd" [
	<!ENTITY ns_flows "http://ns.adobe.com/Flows/1.0/">
]>
<svg version="1.1"
	 xmlns="http://www.w3.org/2000/svg" xmlns:xlink="http://www.w3.org/1999/xlink" xmlns:a="http://ns.adobe.com/AdobeSVGViewerExtensions/3.0/"
	 x="0px" y="0px" width="272px" height="59px" viewBox="10 5 272 59" enable-background="new 10 5 272 59" xml:space="preserve">
<defs>
</defs>
<image display="none" overflow="visible" width="291" height="69" xlink:href="Signature.png" >
</image>
<g id="XMLID_1_">
	<g>
		<path fill="#555555" d="M86,35c0,1,1.59,1.93,0,3S68.97,48.92,54,50c-2.07,1.03,2.03,6.18-2,7c-3.9-0.1-3.66-4.34-4-8
			c-7.54-3.13-19.27-2.06-19-13c2.63-4.23,15.76-5.91,17-6s-1.64-6.54,5-6c1.15,1.18,1.13,3.53,1,6c3.97-0.76,9.52-1.79,15,0
			c0.21,5.21-4.97,9.23-8,8c-0.86-3.19,6.1-5.08-2.07-5.31C51.65,32.96,55.22,32.72,52,33c0.86,4.14-0.49,9.49,1,13
			c11.64-0.36,20.93-4.07,28-9C70.57,21.08,41.25,10.36,17,18c1.28,3.13,4.76-2.18,5,2c-0.54,4.7-8.37,4.34-12,3
			c0.29-6.46,7.65-11,12-12C43.79,6.01,77.98,20.96,86,35z M48,45c0.59-4.26-0.72-7.61-1-11c-4.36,1.3-14.35,0.66-13,4
			S42.83,43.48,48,45z"/>
		<path fill="#555555" d="M282,38c-0.86,6.14-1.84,12.16-8,13c-3.37-0.63-4.6-3.4-5-7c2.68-2.69,3.8,1.27,6,2
			c1.97-0.69,2.67-2.67,3-5c-0.96-4.38-5.54-5.13-11-5c-2.31,3.36-0.35,10.98-1,16c3.4,2.93,14.11-1.44,16,3
			c-0.43,4.73-6.92,3.15-10,3c-10.19-0.49-21.52-6.93-23-16c-5.7,6.81-14.28,13.18-26,11c-6.98,2.8-13.34,11.18-21,10
			c0.13-7.53,7.84-7.49,11-12c-2.21-3.99,0.29-7.15,0-12c-0.86-2.47-6.96,0.29-8-2c-1.14-4.37-2.76-16.69-1-18s23.33-2.72,24-1
			s3.52,6.19,1,9c-2.57-0.1-1.61-3.73-3-5c-6.35,0.32-18.77-1.66-19,1s0.45,10.3,1,10c8.22,3.85,6.88-6.83,13-8
			c1.09,4.43-1.69,4.97-2,8c9.67,0,19.33,0,29,0c0.51-6.15-1.31-14.65,4-16c2.05,3.29,0.54,10.13,1,15
			C261.46,32.91,277.62,28.66,282,38z M262,51c0-5,0-10,0-15c-4,0.33-9.95-1.29-10,3C252.58,45.76,257.37,48.3,262,51z M246,37
			c-6.1-0.48-11.9-0.47-14.71,0.51c-1.57,0.86-1.82,3.33-2.72,5.29c-0.9,1.96-2.44,3.41-2.57,6.2C237.05,49.39,242.12,43.78,246,37z
			 M226,37c-4.43-0.48-7.51-0.64-8,0s-3.48,7.79-2,10C222.8,47.13,224.24,41.91,226,37z"/>
		<path fill="#555555" d="M210,5c6.36,0.22,10.9,5.61,9,11C213.43,14.9,209.93,11.74,210,5z"/>
		<path fill="#555555" d="M190,40c1.55,7.67-9.34,18.69-21,18c-5.66-4-7.39-11.94-8-21c-5.96,4.7-7.13,14.2-16,16
			c-1.7,0.33-1.61-0.89-2-1c-4.76-7.57,8.16-22.18,15-18c3.3-8.04,2.86-19.81,7-27c1.16-0.16,1.78,0.22,2,1
			c-2.11,8.31-3.4,18.44-2.3,27.51c0.899,7.37,5.41,18.65,8.3,18.49S186.66,46.99,190,40z M157,36c-7.2,0.8-9.05,6.95-12,12
			C149.58,50.27,154.53,41.53,157,36z"/>
		<path fill="#555555" d="M158,13c0,1.67,1.46,2.6,0,5s-9.1,1.89-11.3,3.93c-2.21,2.04-6.68,2.36-6.48,0.33
			c0.2-2.03-3.57-1-5.22-2.26C135.05,7.13,149.79,7.95,158,13z M155,15c-2.72-1.07-4.68-0.63-6,2C151.56,16.89,153.77,16.43,155,15z
			 M146,13c-3.66-0.07-8.11,2.39-6,5C143.12,17.46,144.95,15.62,146,13z"/>
		<path fill="#555555" d="M143,29c-1.87,7.13-9.01,8.99-10,17c-0.34,2.01,0.2,3.13,2,3c-1.36,2.3-1.75,5.58-6,5
			C128.03,43.93,133.63,32.03,143,29z"/>
		<path fill="#555555" d="M132,25c0.82,3.58-2.13,4.96-4,3c-6.66,5.01-3.7,19.64-11,24c-1.25-8.52-7.29-17.23-7-24
			c6.62,0.71,4.95,9.72,8,14C122.1,36.42,121.67,21.02,132,25z"/>
		<path fill="#555555" d="M106,25c-1.6,12.69,8.31,18.9,4,31c-5.32-1.35-3.5-9.83-6-14c-2,0-4,0-6,0c-5.12,2.06-3.84,15.24-10,13
			c0.85-4.81,4.15-7.19,5-12c-2.47-1.93-5.12-0.02-9,1c0-1.33,0-2.67,0-4c4.74-1.82,5.63-1.47,11-2C99.56,34.56,99.02,26.02,106,25z
			 M103,38c0.15-2.48-0.43-7.41-2-5s-1.57,3.1-2,5C100.33,38,101.67,38,103,38z"/>
	</g>
	<g>
	</g>
</g>
<image display="none" overflow="visible" width="21" height="21" xlink:href="../../../../Desktop/Screen Shot 2023-08-18 at 2.39.04 PM.png"  transform="matrix(1 0 0 1 34.5376 24.9648)">
</image>
<image display="none" overflow="visible" width="23" height="23" xlink:href="../../../../Desktop/Screen Shot 2023-08-18 at 2.45.29 PM.png"  transform="matrix(1 0 0 1 9.9468 23.8789)">
</image>
</svg>
